<svg width="28" height="32" viewBox="0 0 28 32" fill="none" xmlns="http://www.w3.org/2000/svg">
<path d="M6.85718 18.2856H16V20.5714H6.85718V18.2856Z" fill="black"/>
<path d="M6.85718 12.5715H20.5715V14.8572H6.85718V12.5715Z" fill="black"/>
<path d="M6.85718 24H12.5715V26.2857H6.85718V24Z" fill="black"/>
<path d="M24 3.42857H20.5714V2.28571C20.5714 1.67951 20.3306 1.09812 19.9019 0.66947C19.4733 0.240816 18.8919 0 18.2857 0H9.14282C8.53661 0 7.95523 0.240816 7.52658 0.66947C7.09792 1.09812 6.85711 1.67951 6.85711 2.28571V3.42857H3.42854C2.82233 3.42857 2.24095 3.66939 1.81229 4.09804C1.38364 4.5267 1.14282 5.10808 1.14282 5.71429V29.7143C1.14282 30.3205 1.38364 30.9019 1.81229 31.3305C2.24095 31.7592 2.82233 32 3.42854 32H24C24.6062 32 25.1876 31.7592 25.6162 31.3305C26.0449 30.9019 26.2857 30.3205 26.2857 29.7143V5.71429C26.2857 5.10808 26.0449 4.5267 25.6162 4.09804C25.1876 3.66939 24.6062 3.42857 24 3.42857ZM9.14282 2.28571H18.2857V6.85714H9.14282V2.28571ZM24 29.7143H3.42854V5.71429H6.85711V9.14286H20.5714V5.71429H24V29.7143Z" fill="black"/>
</svg>
