<svg width="23" height="23" viewBox="0 0 23 23" fill="none" xmlns="http://www.w3.org/2000/svg">
<path d="M2.51469 0.686448C2.12417 0.295924 1.491 0.295924 1.10048 0.686448C0.709956 1.07697 0.709957 1.71014 1.10048 2.10066L10.2293 11.2294L0.329758 21.1289C-0.0607662 21.5195 -0.0607654 22.1526 0.329759 22.5431C0.720283 22.9337 1.35345 22.9337 1.74397 22.5431L11.6435 12.6436L20.8995 21.8997C21.29 22.2902 21.9232 22.2902 22.3137 21.8997C22.7042 21.5091 22.7042 20.876 22.3137 20.4854L13.0577 11.2294L21.543 2.74415C21.9335 2.35363 21.9335 1.72046 21.543 1.32994C21.1524 0.939415 20.5193 0.939416 20.1287 1.32994L11.6435 9.81522L2.51469 0.686448Z" fill="#A1A1A1"/>
</svg>
