<svg width="32" height="32" viewBox="0 0 32 32" fill="none" xmlns="http://www.w3.org/2000/svg">
<path d="M2.28571 20.5715V22.8572H7.52686L0 30.3841L1.616 32.0001L9.14286 24.4732V29.7144H11.4286V20.5715H2.28571Z" fill="#008196"/>
<path d="M25.1428 21.7144H27.4285V27.4286H25.1428V21.7144Z" fill="#008196"/>
<path d="M20.5715 16H22.8572V27.4286H20.5715V16Z" fill="#008196"/>
<path d="M16 18.2856H18.2857V27.4285H16V18.2856Z" fill="#008196"/>
<path d="M29.7143 0H2.28571C1.67969 0.000605116 1.09866 0.241615 0.670139 0.670139C0.241615 1.09866 0.000605116 1.67969 0 2.28571V16H2.28571V12.5714H29.7154L29.7166 29.7143H16V32H29.7143C30.3202 31.9991 30.9011 31.758 31.3295 31.3295C31.758 30.9011 31.9991 30.3202 32 29.7143V2.28571C31.9994 1.67969 31.7584 1.09866 31.3299 0.670139C30.9013 0.241615 30.3203 0.000605116 29.7143 0ZM11.4286 10.2857H2.28571V2.28571H11.4286V10.2857ZM13.7143 10.2857V2.28571H29.7143V10.2857H13.7143Z" fill="#008196"/>
</svg>
