<svg width="32" height="23" viewBox="0 0 32 23" fill="none" xmlns="http://www.w3.org/2000/svg">
<path d="M22.3999 6.40015H25.5999V16.0001H22.3999V6.40015Z" fill="black"/>
<path fill-rule="evenodd" clip-rule="evenodd" d="M32 4.8C32 3.52696 31.4943 2.30606 30.5941 1.40589C29.6939 0.505713 28.473 0 27.2 0H4.8C3.52696 0 2.30606 0.505713 1.40589 1.40589C0.505713 2.30606 0 3.52696 0 4.8V17.6C0 18.873 0.505713 20.0939 1.40589 20.9941C2.30606 21.8943 3.52696 22.4 4.8 22.4H27.2C28.473 22.4 29.6939 21.8943 30.5941 20.9941C31.4943 20.0939 32 18.873 32 17.6V4.8ZM27.2 3.2H4.8C4.37565 3.2 3.96869 3.36857 3.66863 3.66863C3.36857 3.96869 3.2 4.37565 3.2 4.8V17.6C3.2 18.0243 3.36857 18.4313 3.66863 18.7314C3.96869 19.0314 4.37565 19.2 4.8 19.2H27.2C27.6243 19.2 28.0313 19.0314 28.3314 18.7314C28.6314 18.4313 28.8 18.0243 28.8 17.6V4.8C28.8 4.37565 28.6314 3.96869 28.3314 3.66863C28.0313 3.36857 27.6243 3.2 27.2 3.2Z" fill="black"/>
</svg>
