<svg width="111" height="53" viewBox="0 0 111 53" fill="none" xmlns="http://www.w3.org/2000/svg">
<path d="M28.9778 0.438683C30.2758 0.438683 31.8518 0.445715 33.4277 0.438683C38.2188 0.41759 42.4084 2.01017 46.0317 5.12501C48.378 7.14298 50.3127 9.51954 52.0751 12.0473C52.5781 12.7715 53.06 13.5098 53.5525 14.2445C53.5983 14.3149 53.6405 14.3852 53.7179 14.5152C53.9289 14.1848 54.0907 13.9492 54.235 13.7031C55.8355 10.9434 57.626 8.31368 59.8246 5.99337C62.185 3.50431 64.9429 1.63048 68.3551 0.888683C70.2652 0.473839 72.1964 0.421105 74.1311 0.712902C74.198 0.723449 74.2648 0.751574 74.212 0.733996C73.0653 1.17345 71.7883 1.55314 70.624 2.14376C69.5898 2.66759 68.6294 3.37423 67.7148 4.09845C65.3615 5.96876 63.4936 8.28556 61.9036 10.8098C60.1904 13.5344 58.604 16.3399 56.9542 19.1066C56.8381 19.3 56.831 19.4441 56.9612 19.634C58.5547 22.007 60.0638 24.4399 61.7453 26.7461C64.0564 29.9207 66.7756 32.6981 70.2898 34.5859C71.9255 35.4649 73.6492 36.0906 75.4855 36.4563C75.088 36.509 74.6905 36.5793 74.293 36.6145C73.8744 36.6496 73.4522 36.6531 73.0301 36.6602C72.608 36.6672 72.1858 36.6707 71.7637 36.6602C68.0736 36.5723 64.7107 35.4613 61.682 33.366C59.5186 31.8684 57.6894 30.0156 56.0431 27.9766C53.5701 24.9145 51.5158 21.5676 49.4474 18.2277C47.7377 15.468 46.0141 12.7223 44.0441 10.1348C42.5632 8.19064 40.9486 6.359 39.0525 4.80509C37.0193 3.13868 34.7679 1.83439 32.2246 1.1172C31.0673 0.793762 29.8713 0.621496 28.9778 0.438683Z" fill="#058196"/>
<path d="M48.4906 36.7902C46.6051 36.7902 44.7021 36.8606 42.8095 36.7727C40.1853 36.6531 37.7018 35.9395 35.3766 34.6985C32.6469 33.2395 30.4096 31.2074 28.4186 28.8695C25.7521 25.7371 23.6063 22.2531 21.4429 18.7727C19.4414 15.5524 17.4539 12.325 15.0653 9.36837C12.9793 6.78439 10.633 4.4922 7.7098 2.8504C5.72229 1.73595 3.60463 1.00822 1.33922 0.716419C1.1176 0.688294 0.899505 0.646106 0.663818 0.607434C2.62318 0.607434 4.57903 0.523059 6.52081 0.625012C10.225 0.825403 13.5738 2.06993 16.5568 4.29884C19.4378 6.45392 21.749 9.13634 23.7295 12.0965C25.833 15.236 27.8241 18.4527 29.8643 21.6379C31.5915 24.3274 33.368 26.9852 35.4892 29.3863C37.7687 31.9668 40.3823 34.1254 43.5834 35.486C45.1383 36.1469 46.767 36.5406 48.4414 36.7656C48.4625 36.7727 48.4801 36.7867 48.4906 36.7902Z" fill="#058196"/>
<path d="M110.149 36.6672C107.894 36.5793 105.379 36.8324 102.881 36.407C100.064 35.9254 97.531 34.7969 95.2762 33.0601C94.555 32.5047 93.8937 31.8719 93.2078 31.2777C93.1128 31.1969 93.0213 31.1125 92.8982 31.0035C88.1774 35.5422 82.5772 37.3527 76.2805 36.4844C77.3745 36.1258 78.6409 35.7777 79.8545 35.2961C82.1481 34.3855 84.1672 33.0109 85.9296 31.2988C87.1925 30.0719 88.3322 28.7183 89.5318 27.4246C89.7041 27.2383 89.7076 27.0906 89.5564 26.8761C87.7588 24.3027 85.6869 22.0035 83.0451 20.2597C80.8289 18.7972 78.4334 17.8094 75.781 17.4859C75.7142 17.4789 75.6509 17.4508 75.5911 17.4015C78.451 17.4824 81.3249 17.1344 84.1567 17.8656C86.4291 18.4527 88.5011 19.4195 90.3936 20.7976C92.0997 22.0422 93.4751 23.6066 94.7907 25.2344C96.2365 27.0238 97.6366 28.8519 99.1703 30.564C101.179 32.807 103.585 34.5578 106.427 35.6054C107.704 36.0765 109.052 36.3613 110.149 36.6672Z" fill="#058196"/>
<path d="M91.2872 8.06405C89.3982 8.06405 87.5584 8.07811 85.7222 8.04647C85.5181 8.04295 85.2754 7.83553 85.1277 7.65624C84.0864 6.38358 82.9572 5.19881 81.6873 4.14764C79.8159 2.59725 77.7299 1.46522 75.359 0.888656C75.2499 0.860531 75.1444 0.828891 75.0283 0.79725C77.0123 0.291 80.9029 0.382406 84.199 2.00662C87.08 3.42342 89.3278 5.56795 91.2872 8.06405Z" fill="#058196"/>
<path d="M40.1079 47.6148C40.1079 49.2285 40.1079 50.793 40.1079 52.382C39.7631 52.382 39.4325 52.382 39.0385 52.382C39.0385 51.1094 39.0385 49.8332 39.0385 48.557C39.0033 48.55 38.9681 48.543 38.933 48.5359C38.8802 48.6555 38.8239 48.7715 38.7782 48.8945C38.3842 49.9422 37.9691 50.9863 37.6138 52.048C37.4555 52.5297 37.1108 52.3644 36.8083 52.4101C36.4811 52.4594 36.4178 52.2484 36.3369 52.0129C35.9535 50.916 35.563 49.8226 35.1725 48.7258C35.1409 48.6379 35.1057 48.5535 35.0037 48.4832C35.0037 49.7664 35.0037 51.0461 35.0037 52.368C34.6308 52.368 34.2931 52.368 33.9272 52.368C33.9272 50.8 33.9272 49.232 33.9272 47.6394C34.5675 47.6394 35.1901 47.6394 35.8409 47.6394C36.2102 48.7469 36.5831 49.8613 36.9912 51.0918C37.1706 50.6172 37.3113 50.2445 37.4485 49.8719C37.6877 49.2144 37.9304 48.557 38.1591 47.8926C38.2259 47.6922 38.3174 47.6008 38.5425 47.6078C39.0526 47.6289 39.5697 47.6148 40.1079 47.6148Z" fill="#353535"/>
<path d="M15.1883 49.0211C15.1883 49.4852 15.1883 49.9492 15.1883 50.4133C15.1848 51.5946 14.6712 52.2203 13.4893 52.4383C12.7435 52.5754 12.0083 52.5332 11.3188 52.1711C10.7806 51.8899 10.4499 51.4364 10.4324 50.8352C10.4042 49.784 10.4253 48.7293 10.4253 47.6465C10.8123 47.6465 11.1816 47.6465 11.5967 47.6465C11.5967 48.1809 11.5932 48.6942 11.5967 49.211C11.5967 49.6469 11.5862 50.0828 11.5967 50.5153C11.6249 51.4469 11.9766 51.7774 12.9018 51.7563C13.5913 51.7422 13.9677 51.3942 13.9888 50.691C14.0169 49.8508 14.0064 49.0106 14.0134 48.1668C14.0134 48.0016 14.0134 47.8364 14.0134 47.6324C14.4285 47.6324 14.7767 47.6324 15.1883 47.6324C15.1883 48.1071 15.1883 48.5641 15.1883 49.0211Z" fill="#353535"/>
<path d="M47.882 52.4066C47.7307 52.4066 47.6463 52.3925 47.5654 52.4101C46.9287 52.5332 46.5312 52.3187 46.3975 51.6508C46.3764 51.5488 46.1724 51.4152 46.0493 51.4082C45.504 51.3836 44.9517 51.38 44.4065 51.4117C44.2693 51.4187 44.0793 51.5488 44.016 51.6718C43.6115 52.4945 43.622 52.498 42.5984 52.3679C43.01 51.3765 43.4145 50.3957 43.8226 49.4183C44.0371 48.9015 44.2412 48.3777 44.4804 47.8715C44.5331 47.7554 44.709 47.6359 44.8357 47.6254C45.9648 47.555 45.9648 47.5621 46.3834 48.6097C46.8196 49.7031 47.2629 50.7929 47.6991 51.8863C47.7589 52.0375 47.8081 52.1957 47.882 52.4066ZM45.2437 48.5218C44.9517 49.2672 44.7055 49.9035 44.4487 50.5574C45.0186 50.5574 45.4829 50.5574 46 50.5574C45.7503 49.8859 45.5181 49.2601 45.2437 48.5218Z" fill="#353535"/>
<path d="M86.6296 52.484C86.4642 52.484 86.3552 52.484 86.1899 52.484C86.1899 51.0742 86.1899 49.6821 86.1899 48.2899C86.1582 48.2828 86.1301 48.2758 86.0984 48.2688C86.0456 48.3567 85.9858 48.4375 85.9436 48.5289C85.3632 49.7418 84.7933 50.9617 84.1988 52.1676C84.1285 52.3082 83.9526 52.4383 83.7978 52.491C83.5234 52.586 83.4531 52.3434 83.3616 52.1535C82.7953 50.9653 82.2254 49.777 81.6555 48.5887C81.6027 48.4832 81.5359 48.3813 81.4093 48.3004C81.4093 49.6821 81.4093 51.0602 81.4093 52.4735C81.2299 52.4735 81.0892 52.4735 80.9238 52.4735C80.9238 50.9055 80.9238 49.3516 80.9238 47.8012C81.5852 47.6254 81.6801 47.6641 81.9721 48.2512C82.4927 49.3059 83.0134 50.3641 83.5375 51.4188C83.6043 51.5524 83.6817 51.6824 83.7943 51.8899C84.1285 51.2324 84.4275 50.6383 84.73 50.0442C85.0712 49.3692 85.4371 48.7047 85.7501 48.0156C85.912 47.6571 86.1969 47.6992 86.4502 47.759C86.5451 47.7801 86.6401 48.0508 86.6436 48.209C86.6577 49.4887 86.6542 50.7649 86.6507 52.0445C86.6507 52.1746 86.6401 52.3117 86.6296 52.484Z" fill="#353535"/>
<path d="M27.5462 47.6395C27.5462 47.8891 27.5462 48.1106 27.5462 48.3953C27.117 48.3953 26.6984 48.4094 26.2833 48.3918C25.9914 48.3777 25.8929 48.4867 25.8964 48.7785C25.9105 49.8051 25.9034 50.8281 25.9034 51.8547C25.9034 52.0199 25.9034 52.1887 25.9034 52.382C25.5059 52.382 25.1436 52.382 24.732 52.382C24.732 51.0742 24.732 49.7629 24.732 48.4024C24.1657 48.4024 23.6556 48.4024 23.1104 48.4024C23.1104 48.1211 23.1104 47.8961 23.1104 47.6395C24.5843 47.6395 26.0406 47.6395 27.5462 47.6395Z" fill="#353535"/>
<path d="M18.1575 47.6289C18.5444 47.6289 18.8927 47.6289 19.3007 47.6289C19.3007 48.2969 19.3007 48.9508 19.3007 49.6047C19.3007 50.248 19.3007 50.8914 19.3007 51.6051C19.9058 51.6051 20.4721 51.6051 21.042 51.6051C21.7737 51.6051 21.7737 51.6051 21.6857 52.3785C20.5214 52.3785 19.3535 52.3785 18.1575 52.3785C18.1575 50.7965 18.1575 49.232 18.1575 47.6289Z" fill="#353535"/>
<path d="M75.3448 52.607C73.8146 52.6 72.9035 51.6719 72.907 50.1144C72.9105 48.5711 73.8462 47.6219 75.3588 47.6254C76.9101 47.6289 77.8494 48.5781 77.8459 50.1285C77.8423 51.6824 76.9031 52.614 75.3448 52.607ZM77.2901 50.125C77.2936 48.9543 76.6815 48.1562 75.693 48.0367C74.5498 47.8961 73.7337 48.4656 73.4909 49.573C73.2517 50.6664 73.7301 51.7457 74.6025 52.0902C76.0237 52.6422 77.2865 51.7211 77.2901 50.125Z" fill="#353535"/>
<path d="M66.241 52.484C66.0335 52.484 65.9103 52.484 65.7661 52.484C65.7661 50.9019 65.7661 49.3375 65.7661 47.7765C66.1284 47.6605 66.3536 47.7519 66.5682 48.0578C67.4124 49.2637 68.2883 50.4519 69.1502 51.6437C69.1994 51.7105 69.2486 51.7738 69.3788 51.9496C69.3788 50.4801 69.3788 49.1371 69.3788 47.7625C69.5547 47.7484 69.6743 47.7414 69.8291 47.7308C69.8291 49.3269 69.8291 50.8879 69.8291 52.4594C69.4386 52.5965 69.1853 52.4699 68.9496 52.1324C68.1582 50.9898 67.335 49.8719 66.5224 48.7433C66.4626 48.659 66.3887 48.5851 66.2375 48.4129C66.241 49.8297 66.241 51.141 66.241 52.484Z" fill="#353535"/>
<path d="M55.526 50.4695C55.0441 50.4695 54.6149 50.4695 54.1682 50.4695C54.1682 50.3219 54.1682 50.2164 54.1682 50.0899C54.7803 50.0899 55.3783 50.0899 56.0185 50.0899C56.0185 50.7895 56.0255 51.475 56.0115 52.157C56.0115 52.2379 55.9024 52.361 55.825 52.382C55.0195 52.607 54.1928 52.7125 53.3732 52.5297C52.4058 52.3188 51.7797 51.5594 51.7269 50.5469C51.7023 50.0934 51.7199 49.6082 51.857 49.1828C52.3284 47.7309 54.0838 47.1473 55.3748 47.9734C55.6914 48.1773 55.927 48.4445 55.9692 48.8523C55.6667 48.9402 55.4733 48.9156 55.2939 48.5852C54.8928 47.8539 53.5139 47.8117 52.8315 48.4762C52.1947 49.0949 52.0189 50.343 52.4445 51.2289C52.7857 51.9426 53.5913 52.3188 54.5481 52.2168C55.5295 52.1078 55.5295 52.1078 55.5295 51.127C55.526 50.9301 55.526 50.7332 55.526 50.4695Z" fill="#353535"/>
<path d="M104.176 48.7434C104.025 48.7434 103.891 48.7434 103.754 48.7434C103.381 47.9489 102.009 47.752 101.397 48.4059C101.077 48.7469 101.147 49.2637 101.608 49.5063C101.999 49.7137 102.442 49.8192 102.86 49.9774C103.188 50.1004 103.536 50.1918 103.828 50.3746C104.479 50.7754 104.514 51.6895 103.926 52.1711C103.286 52.6914 101.861 52.7723 101.168 52.3293C100.806 52.0973 100.595 51.7739 100.56 51.3203C100.848 51.236 101.045 51.2184 101.144 51.5735C101.193 51.7493 101.369 51.9461 101.538 52.027C102.153 52.3258 102.79 52.3293 103.388 51.9707C103.965 51.6227 103.94 50.9301 103.335 50.6348C102.987 50.4661 102.59 50.3993 102.224 50.2621C101.886 50.1356 101.531 50.0196 101.228 49.8297C100.482 49.3621 100.496 48.4551 101.228 47.9594C101.872 47.5235 103.071 47.5094 103.719 47.9418C103.99 48.1211 104.201 48.3532 104.176 48.7434Z" fill="#353535"/>
<path d="M62.4734 49.8121C62.4734 49.9773 62.4734 50.0828 62.4734 50.2269C61.7311 50.2269 61.003 50.2445 60.2748 50.2199C59.9336 50.2093 59.7858 50.2972 59.814 50.6593C59.8421 51.0355 59.8316 51.4152 59.814 51.7949C59.7999 52.0761 59.9195 52.157 60.1833 52.1535C60.9115 52.1429 61.6432 52.1429 62.3749 52.1605C62.491 52.164 62.6035 52.2801 62.7196 52.3433C62.6106 52.3961 62.505 52.4945 62.396 52.4945C61.3899 52.5051 60.3839 52.5015 59.3567 52.5015C59.3426 52.3539 59.325 52.2449 59.325 52.1359C59.3215 50.8035 59.3321 49.4711 59.318 48.1386C59.3145 47.8363 59.3883 47.7168 59.7155 47.7238C60.5562 47.7449 61.4005 47.7343 62.2412 47.7273C62.4874 47.7273 62.6809 47.7484 62.5472 48.1176C61.6749 48.1176 60.7814 48.1176 59.8527 48.1176C59.8527 48.6976 59.8527 49.2355 59.8527 49.8156C60.718 49.8121 61.5658 49.8121 62.4734 49.8121Z" fill="#353535"/>
<path d="M29.9663 52.3856C29.9663 50.7824 29.9663 49.218 29.9663 47.6324C30.3462 47.6324 30.705 47.6324 31.099 47.6324C31.099 49.2145 31.099 50.7895 31.099 52.3856C30.7261 52.3856 30.3673 52.3856 29.9663 52.3856Z" fill="#353535"/>
<path d="M97.9743 48.782C97.524 48.891 97.3622 48.8277 97.2004 48.5464C96.7536 47.766 95.2058 47.8539 94.5902 48.666C94.0309 49.4043 94.0274 50.8246 94.5797 51.5664C95.2586 52.4769 96.6832 52.4347 97.3516 51.5066C97.436 51.3871 97.6612 51.3695 97.8511 51.3589C97.7421 51.9882 97.3481 52.3398 96.7993 52.4875C95.8847 52.7371 94.9842 52.6949 94.2947 51.9601C93.5525 51.1691 93.4856 50.1882 93.7811 49.1968C94.2173 47.7414 96.0641 47.1086 97.32 47.9769C97.5732 48.1527 97.7245 48.4656 97.9743 48.782Z" fill="#353535"/>
<path d="M90.0701 47.7274C90.2319 47.7274 90.355 47.7274 90.5063 47.7274C90.5063 49.3059 90.5063 50.8703 90.5063 52.4699C90.3726 52.4805 90.2389 52.491 90.0701 52.5051C90.0701 50.902 90.0701 49.3305 90.0701 47.7274Z" fill="#353535"/>
<path d="M45.2437 48.5219C45.5181 49.2601 45.7503 49.8824 46 50.5574C45.4865 50.5574 45.0186 50.5574 44.4487 50.5574C44.7055 49.9035 44.9553 49.2672 45.2437 48.5219Z" fill="white"/>
<path d="M77.2902 50.125C77.2866 51.7211 76.0238 52.6422 74.6061 52.0867C73.7302 51.7457 73.2518 50.6664 73.4946 49.5695C73.7373 48.4656 74.5534 47.8961 75.6966 48.0332C76.6816 48.1562 77.2937 48.9543 77.2902 50.125Z" fill="white"/>
</svg>
