<svg width="32" height="32" viewBox="0 0 32 32" fill="none" xmlns="http://www.w3.org/2000/svg">
<g clip-path="url(#clip0)">
<path d="M26.9272 0.0202637L31.9799 5.0729L28.1281 8.92637L23.0754 3.87374L26.9272 0.0202637Z" fill="#3F3F3F"/>
<path d="M8.42114 23.5789H13.4738L25.7466 11.306L20.694 6.25342L8.42114 18.5263V23.5789Z" fill="#3F3F3F"/>
<path d="M26.9474 28.6317H8.68716C8.64337 28.6317 8.5979 28.6485 8.55411 28.6485C8.49853 28.6485 8.44295 28.6334 8.38568 28.6317H3.36842V5.05275H14.9002L18.2686 1.68433H3.36842C1.51074 1.68433 0 3.19338 0 5.05275V28.6317C0 30.4911 1.51074 32.0001 3.36842 32.0001H26.9474C27.8407 32.0001 28.6975 31.6452 29.3292 31.0135C29.9609 30.3818 30.3158 29.5251 30.3158 28.6317V14.033L26.9474 17.4014V28.6317Z" fill="#3F3F3F"/>
</g>
<defs>
<clipPath id="clip0">
<rect width="32" height="32" fill="white"/>
</clipPath>
</defs>
</svg>
