<svg width="32" height="32" viewBox="0 0 32 32" fill="none" xmlns="http://www.w3.org/2000/svg">
<path d="M16 0C7.16429 0 0 7.16429 0 16C0 24.8357 7.16429 32 16 32C24.8357 32 32 24.8357 32 16C32 7.16429 24.8357 0 16 0ZM16 25.2857C15.2107 25.2857 14.5714 24.6464 14.5714 23.8571C14.5714 23.0679 15.2107 22.4286 16 22.4286C16.7893 22.4286 17.4286 23.0679 17.4286 23.8571C17.4286 24.6464 16.7893 25.2857 16 25.2857ZM18.2464 17.4464C17.923 17.5713 17.6447 17.7908 17.4478 18.0762C17.251 18.3616 17.1447 18.6997 17.1429 19.0464V19.8571C17.1429 20.0143 17.0143 20.1429 16.8571 20.1429H15.1429C14.9857 20.1429 14.8571 20.0143 14.8571 19.8571V19.0893C14.8571 18.2643 15.0964 17.45 15.5679 16.7714C16.0286 16.1071 16.6714 15.6 17.4286 15.3107C18.6429 14.8429 19.4286 13.825 19.4286 12.7143C19.4286 11.1393 17.8893 9.85714 16 9.85714C14.1107 9.85714 12.5714 11.1393 12.5714 12.7143V12.9857C12.5714 13.1429 12.4429 13.2714 12.2857 13.2714H10.5714C10.4143 13.2714 10.2857 13.1429 10.2857 12.9857V12.7143C10.2857 11.3107 10.9 10 12.0143 9.025C13.0857 8.08572 14.5 7.57143 16 7.57143C17.5 7.57143 18.9143 8.08929 19.9857 9.025C21.1 10 21.7143 11.3107 21.7143 12.7143C21.7143 14.7786 20.3536 16.6357 18.2464 17.4464Z" fill="#3F3F3F"/>
</svg>
