<svg width="32" height="32" viewBox="0 0 32 32" fill="none" xmlns="http://www.w3.org/2000/svg">
<path d="M13.6666 26.9999C16.6249 26.9993 19.4979 26.009 21.8283 24.1866L29.1549 31.5132L31.5116 29.1566L24.1849 21.8299C26.0083 19.4994 26.9992 16.6256 26.9999 13.6666C26.9999 6.31492 21.0183 0.333252 13.6666 0.333252C6.31492 0.333252 0.333252 6.31492 0.333252 13.6666C0.333252 21.0182 6.31492 26.9999 13.6666 26.9999ZM13.6666 3.66658C19.1816 3.66658 23.6666 8.15158 23.6666 13.6666C23.6666 19.1816 19.1816 23.6666 13.6666 23.6666C8.15159 23.6666 3.66659 19.1816 3.66659 13.6666C3.66659 8.15158 8.15159 3.66658 13.6666 3.66658Z" fill="#3F3F3F"/>
<path d="M16.0201 11.3099C16.6518 11.9432 17.0001 12.7799 17.0001 13.6666H20.3335C20.3349 12.7906 20.1628 11.9231 19.8269 11.114C19.4911 10.305 18.9982 9.57061 18.3768 8.95323C15.8535 6.43323 11.4785 6.43323 8.95679 8.95323L11.3101 11.3132C12.5768 10.0499 14.7601 10.0532 16.0201 11.3099Z" fill="#3F3F3F"/>
</svg>
