<svg width="30" height="30" viewBox="0 0 30 30" fill="none" xmlns="http://www.w3.org/2000/svg">
<path d="M29.8571 2.42854C29.8571 1.82233 29.6163 1.24095 29.1876 0.812292C28.759 0.383638 28.1776 0.142822 27.5714 0.142822H2.42854C1.82233 0.142822 1.24095 0.383638 0.812292 0.812292C0.383638 1.24095 0.142822 1.82233 0.142822 2.42854V27.5714C0.142822 28.1776 0.383638 28.759 0.812292 29.1876C1.24095 29.6163 1.82233 29.8571 2.42854 29.8571H27.5714C28.1776 29.8571 28.759 29.6163 29.1876 29.1876C29.6163 28.759 29.8571 28.1776 29.8571 27.5714V2.42854ZM27.5714 2.42854V6.99997H2.42854V2.42854H27.5714ZM27.5714 27.5714H2.42854V23H27.5714V27.5714ZM27.5714 20.7143H2.42854V16.1428H27.5714V20.7143ZM27.5714 13.8571H2.42854V9.28568H27.5714V13.8571Z" fill="#008196"/>
</svg>
