<svg width="33" height="32" viewBox="0 0 33 32" fill="none" xmlns="http://www.w3.org/2000/svg">
<path d="M31.7346 20.1004L29.3198 18.1071C29.4341 17.4308 29.4931 16.7402 29.4931 16.0497C29.4931 15.3592 29.4341 14.6686 29.3198 13.9923L31.7346 11.999C31.9167 11.8484 32.0471 11.6479 32.1083 11.4241C32.1696 11.2003 32.1588 10.9638 32.0774 10.746L32.0443 10.6535C31.3795 8.85959 30.384 7.19662 29.106 5.74492L29.0397 5.67017C28.8846 5.49416 28.678 5.36764 28.447 5.30727C28.216 5.24691 27.9715 5.25553 27.7456 5.33202L24.7484 6.36072C23.6424 5.48508 22.4074 4.79453 21.0728 4.31044L20.494 1.28486C20.4504 1.0572 20.336 0.847756 20.1661 0.684358C19.9962 0.52096 19.7788 0.41134 19.5429 0.370061L19.4433 0.352264C17.5226 0.0176699 15.5023 0.0176699 13.5816 0.352264L13.4821 0.370061C13.2461 0.41134 13.0287 0.52096 12.8588 0.684358C12.689 0.847756 12.5746 1.0572 12.5309 1.28486L11.9484 4.32468C10.6245 4.80887 9.39161 5.49905 8.29865 6.36784L5.27929 5.33202C5.05354 5.25493 4.80884 5.24599 4.57771 5.30639C4.34657 5.36679 4.13994 5.49367 3.98528 5.67017L3.91892 5.74492C2.64241 7.19764 1.64713 8.86034 0.980675 10.6535L0.947495 10.746C0.781596 11.191 0.918002 11.6893 1.29035 11.999L3.73459 14.0137C3.62031 14.6829 3.56501 15.3663 3.56501 16.0461C3.56501 16.7296 3.62031 17.413 3.73459 18.0786L1.29035 20.0933C1.10822 20.2439 0.97786 20.4444 0.916616 20.6682C0.855371 20.892 0.866142 21.1285 0.947495 21.3463L0.980675 21.4388C1.64796 23.2328 2.63597 24.888 3.91892 26.3474L3.98528 26.4221C4.14032 26.5981 4.34696 26.7247 4.57795 26.785C4.80895 26.8454 5.05347 26.8368 5.27929 26.7603L8.29865 25.7245C9.39726 26.5965 10.6249 27.2871 11.9484 27.7676L12.5309 30.8074C12.5746 31.0351 12.689 31.2445 12.8588 31.4079C13.0287 31.5713 13.2461 31.681 13.4821 31.7222L13.5816 31.74C15.52 32.0764 17.505 32.0764 19.4433 31.74L19.5429 31.7222C19.7788 31.681 19.9962 31.5713 20.1661 31.4079C20.336 31.2445 20.4504 31.0351 20.494 30.8074L21.0728 27.7819C22.4069 27.299 23.6489 26.6062 24.7484 25.7316L27.7456 26.7603C27.9714 26.8374 28.2161 26.8463 28.4472 26.7859C28.6784 26.7255 28.885 26.5986 29.0397 26.4221L29.106 26.3474C30.389 24.8844 31.377 23.2328 32.0443 21.4388L32.0774 21.3463C32.2433 20.9084 32.1069 20.4101 31.7346 20.1004ZM26.7023 14.4123C26.7945 14.9498 26.8424 15.5015 26.8424 16.0533C26.8424 16.605 26.7945 17.1567 26.7023 17.6942L26.459 19.1216L29.2129 21.3961C28.7954 22.3247 28.2685 23.2038 27.6424 24.0159L24.2212 22.8448L23.0636 23.7632C22.1825 24.4608 21.2019 25.009 20.1401 25.3934L18.7355 25.9024L18.0756 29.3552C17.0344 29.4691 15.9832 29.4691 14.942 29.3552L14.2821 25.8953L12.8885 25.3792C11.8378 24.9948 10.8609 24.4466 9.98713 23.7525L8.82952 22.8306L5.3862 24.0123C4.75948 23.1972 4.23597 22.318 3.8157 21.3925L6.59911 19.0966L6.35948 17.6728C6.271 17.1425 6.22307 16.5943 6.22307 16.0533C6.22307 15.5087 6.26731 14.9641 6.35948 14.4337L6.59911 13.0099L3.8157 10.714C4.23229 9.78497 4.75948 8.90933 5.3862 8.0942L8.82952 9.27596L9.98713 8.35404C10.8609 7.65994 11.8378 7.11177 12.8885 6.72735L14.2857 6.21834L14.9457 2.75849C15.9816 2.64459 17.0397 2.64459 18.0793 2.75849L18.7392 6.21122L20.1438 6.72023C21.2019 7.10465 22.1862 7.65282 23.0673 8.35048L24.2249 9.26884L27.6461 8.09776C28.2728 8.91289 28.7963 9.79209 29.2166 10.7176L26.4627 12.9921L26.7023 14.4123ZM16.5162 9.43257C12.9327 9.43257 10.0277 12.2375 10.0277 15.6973C10.0277 19.1572 12.9327 21.9621 16.5162 21.9621C20.0996 21.9621 23.0046 19.1572 23.0046 15.6973C23.0046 12.2375 20.0996 9.43257 16.5162 9.43257ZM19.436 18.5164C19.053 18.8873 18.5979 19.1813 18.0968 19.3817C17.5957 19.5821 17.0585 19.6848 16.5162 19.684C15.4139 19.684 14.3779 19.2675 13.5963 18.5164C13.2123 18.1467 12.9077 17.7073 12.7002 17.2235C12.4927 16.7396 12.3863 16.221 12.3871 15.6973C12.3871 14.633 12.8185 13.6328 13.5963 12.8782C14.3779 12.1236 15.4139 11.7107 16.5162 11.7107C17.6185 11.7107 18.6544 12.1236 19.436 12.8782C19.82 13.2479 20.1246 13.6874 20.3321 14.1712C20.5396 14.655 20.646 15.1736 20.6452 15.6973C20.6452 16.7616 20.2139 17.7618 19.436 18.5164Z" fill="#3F3F3F"/>
</svg>
