<?xml version="1.0" encoding="utf-8"?>
<!-- Generator: Adobe Illustrator 24.2.3, SVG Export Plug-In . SVG Version: 6.00 Build 0)  -->
<svg version="1.1" id="Layer_1" xmlns="http://www.w3.org/2000/svg" xmlns:xlink="http://www.w3.org/1999/xlink" x="0px" y="0px"
	 viewBox="0 0 391.2 200.4" style="enable-background:new 0 0 391.2 230.4;" xml:space="preserve">
<style type="text/css">
	.st0{fill:#FFFFFF;}
	.st1{fill:#058196;}
	.st2{fill:#353535;}
</style>
<g id="XMLID_3_">
	<g>
		<path class="st0" d="M391.2,0c0,76.8,0,153.6,0,230.4c-130.4,0-260.8,0-391.2,0C0,153.6,0,76.8,0,0C130.4,0,260.8,0,391.2,0z
			 M326.57,143.38c7.1,1.21,14.25,0.5,20.66,0.74c-3.11-0.87-6.94-1.68-10.57-3.02c-8.09-2.98-14.92-7.96-20.64-14.34
			c-4.36-4.86-8.34-10.07-12.45-15.15c-3.74-4.64-7.65-9.09-12.5-12.63c-5.38-3.92-11.27-6.67-17.73-8.34
			c-8.05-2.08-16.22-1.09-24.35-1.32c0.17,0.14,0.35,0.22,0.54,0.24c7.53,0.92,14.35,3.73,20.65,7.89
			c7.51,4.96,13.4,11.5,18.51,18.82c0.42,0.61,0.41,1.03-0.07,1.56c-3.41,3.68-6.65,7.53-10.24,11.02
			c-5.01,4.87-10.75,8.78-17.27,11.37c-3.45,1.37-7.05,2.35-10.16,3.37c17.9,2.47,33.82-2.68,47.24-15.59
			c0.35,0.32,0.61,0.55,0.88,0.78c1.95,1.7,3.83,3.5,5.88,5.08C311.36,138.8,318.56,142.01,326.57,143.38z M330.26,178.48
			c0.07-1.12-0.53-1.78-1.32-2.3c-1.83-1.23-5.24-1.18-7.07,0.05c-2.09,1.41-2.12,3.99,0,5.32c0.86,0.54,1.86,0.87,2.83,1.23
			c1.04,0.38,2.17,0.58,3.16,1.06c1.72,0.84,1.79,2.81,0.15,3.8c-1.69,1.02-3.5,1.02-5.25,0.16c-0.48-0.23-0.98-0.78-1.12-1.29
			c-0.28-1.01-0.84-0.96-1.66-0.72c0.1,1.29,0.69,2.21,1.73,2.87c1.96,1.26,6.02,1.03,7.83-0.45c1.68-1.36,1.58-3.96-0.28-5.1
			c-0.83-0.51-1.82-0.78-2.75-1.13c-1.18-0.45-2.44-0.75-3.55-1.34c-1.31-0.69-1.51-2.16-0.6-3.13c1.74-1.86,5.64-1.3,6.7,0.97
			C329.44,178.48,329.83,178.48,330.26,178.48z M310.44,177.91c0.46,0.81,0.92,0.99,2.19,0.67c-0.71-0.89-1.14-1.79-1.86-2.28
			c-3.56-2.48-8.82-0.68-10.06,3.46c-0.84,2.82-0.64,5.62,1.46,7.86c1.96,2.09,4.53,2.21,7.13,1.5c1.55-0.42,2.68-1.41,2.98-3.21
			c-0.54,0.04-1.18,0.09-1.42,0.42c-1.89,2.65-5.94,2.77-7.87,0.18c-1.58-2.12-1.57-6.16,0.02-8.26
			C304.76,175.95,309.16,175.7,310.44,177.91z M277.79,62.71c5.23,0.08,10.46,0.05,15.82,0.05c-5.56-7.09-11.96-13.2-20.15-17.23
			c-9.38-4.61-20.43-4.87-26.07-3.44c0.32,0.09,0.63,0.19,0.94,0.26c6.74,1.64,12.67,4.86,17.99,9.27c3.61,2.99,6.82,6.36,9.78,9.98
			C276.52,62.11,277.22,62.7,277.79,62.71z M291.39,189.08c0-4.56,0-9,0-13.5c-0.43,0-0.77,0-1.23,0c0,4.56,0,9.03,0,13.6
			C290.63,189.14,291.01,189.11,291.39,189.08z M280.44,187.85c0-3.64,0.02-7.28-0.02-10.91c-0.01-0.45-0.27-1.22-0.55-1.29
			c-0.72-0.16-1.52-0.29-1.99,0.74c-0.89,1.96-1.92,3.85-2.9,5.77c-0.85,1.69-1.71,3.37-2.65,5.25c-0.33-0.59-0.55-0.96-0.74-1.34
			c-1.48-3-2.96-6.01-4.45-9.01c-0.82-1.67-1.1-1.79-2.97-1.28c0,4.41,0,8.83,0,13.29c0.46,0,0.87,0,1.37,0c0-4.01,0-7.94,0-11.87
			c0.37,0.24,0.56,0.52,0.71,0.83c1.62,3.38,3.23,6.76,4.84,10.14c0.26,0.54,0.47,1.23,1.24,0.96c0.44-0.15,0.94-0.52,1.14-0.92
			c1.69-3.44,3.31-6.9,4.96-10.36c0.13-0.25,0.3-0.49,0.45-0.74c0.08,0.03,0.17,0.05,0.26,0.07c0,3.96,0,7.92,0,11.93
			c0.46,0,0.77,0,1.24,0C280.4,188.63,280.44,188.24,280.44,187.85z M255.41,182.41c0.01-4.41-2.66-7.1-7.07-7.12
			c-4.3-0.01-6.96,2.69-6.97,7.08c-0.01,4.43,2.58,7.08,6.93,7.09C252.73,189.48,255.4,186.83,255.41,182.41z M245.29,143.97
			c1.14-0.09,2.27-0.29,3.4-0.44c-5.21-1.05-10.12-2.83-14.77-5.32c-9.99-5.37-17.72-13.27-24.29-22.3
			c-4.78-6.57-9.07-13.49-13.59-20.24c-0.37-0.54-0.35-0.95-0.02-1.5c4.69-7.87,9.19-15.85,14.07-23.6
			c4.51-7.18,9.83-13.77,16.51-19.09c2.6-2.07,5.33-4.07,8.27-5.56c3.32-1.69,6.94-2.76,10.2-4.01c0.15,0.04-0.04-0.04-0.23-0.07
			c-5.5-0.83-10.99-0.69-16.42,0.5c-9.7,2.11-17.55,7.44-24.25,14.52c-6.25,6.6-11.34,14.08-15.89,21.92
			c-0.41,0.71-0.88,1.38-1.47,2.32c-0.22-0.36-0.34-0.57-0.47-0.77c-1.4-2.08-2.77-4.18-4.2-6.24c-5-7.2-10.5-13.96-17.18-19.69
			c-10.3-8.86-22.2-13.39-35.82-13.33c-4.48,0.02-8.96,0-12.65,0c2.54,0.52,5.94,1.01,9.21,1.94c7.23,2.03,13.64,5.75,19.41,10.49
			c5.39,4.42,9.97,9.62,14.19,15.16c5.6,7.35,10.5,15.16,15.36,23.01c5.88,9.49,11.72,19.01,18.75,27.73
			c4.68,5.8,9.88,11.07,16.03,15.33c8.62,5.97,18.17,9.13,28.66,9.37c1.2,0.03,2.4,0.03,3.6,0.01
			C242.9,144.09,244.1,144.07,245.29,143.97z M232.61,189.03c0-4.46,0-8.91,0-13.45c-0.44,0.04-0.78,0.06-1.28,0.1
			c0,3.9,0,7.72,0,11.9c-0.37-0.49-0.51-0.67-0.65-0.86c-2.45-3.4-4.93-6.77-7.34-10.2c-0.6-0.87-1.24-1.13-2.28-0.8
			c0,4.44,0,8.89,0,13.39c0.41,0,0.76,0,1.35,0c0-3.82,0-7.54,0-11.59c0.42,0.49,0.63,0.7,0.81,0.94c2.31,3.21,4.64,6.39,6.89,9.64
			C230.78,189.06,231.5,189.42,232.61,189.03z M211.92,176.68c0.38-1.04-0.17-1.11-0.86-1.11c-2.4,0.02-4.8,0.05-7.19-0.01
			c-0.93-0.02-1.14,0.32-1.13,1.18c0.04,3.79,0.01,7.58,0.02,11.37c0,0.31,0.05,0.62,0.09,1.04c2.92,0,5.78,0.02,8.64-0.02
			c0.31,0,0.62-0.28,0.92-0.43c-0.32-0.18-0.65-0.51-0.98-0.52c-2.07-0.05-4.15-0.05-6.22-0.02c-0.76,0.02-1.09-0.22-1.06-1.02
			c0.05-1.07,0.08-2.16,0-3.23c-0.07-1.03,0.34-1.28,1.32-1.24c2.06,0.07,4.13,0.02,6.24,0.02c0-0.41,0-0.71,0-1.18
			c-2.58,0-4.99,0-7.45,0c0-1.64,0-3.17,0-4.83C206.9,176.68,209.44,176.68,211.92,176.68z M193.34,188.18
			c0.04-1.94,0.02-3.88,0.02-5.88c-1.82,0-3.51,0-5.26,0c0,0.36,0,0.66,0,1.08c1.27,0,2.49,0,3.86,0c0,0.76,0,1.31,0,1.87
			c0,2.8,0,2.8-2.79,3.1c-2.72,0.3-5.01-0.77-5.98-2.8c-1.21-2.52-0.71-6.07,1.1-7.83c1.94-1.89,5.86-1.77,7,0.31
			c0.51,0.94,1.06,1.01,1.92,0.76c-0.11-1.17-0.78-1.93-1.68-2.5c-3.67-2.36-8.67-0.69-10.01,3.44c-0.39,1.21-0.44,2.59-0.37,3.88
			c0.16,2.88,1.93,5.04,4.68,5.64c2.33,0.51,4.69,0.22,6.98-0.42C193.03,188.77,193.34,188.41,193.34,188.18z M171.95,144.47
			c-0.02-0.01-0.08-0.05-0.14-0.06c-4.75-0.64-9.38-1.76-13.8-3.64c-9.11-3.87-16.53-10.01-23.01-17.35
			c-6.04-6.83-11.09-14.39-15.99-22.04c-5.81-9.06-11.47-18.2-17.44-27.14c-5.64-8.42-12.21-16.05-20.4-22.17
			c-8.47-6.34-17.99-9.89-28.52-10.45c-5.52-0.3-11.07-0.06-16.65-0.06c0.67,0.11,1.29,0.23,1.92,0.31
			c6.43,0.83,12.46,2.89,18.11,6.07c8.31,4.66,14.98,11.19,20.9,18.54c6.79,8.41,12.45,17.6,18.13,26.75
			c6.15,9.9,12.25,19.82,19.83,28.72c5.66,6.65,12.03,12.43,19.78,16.58c6.61,3.53,13.67,5.56,21.13,5.9
			C161.18,144.67,166.59,144.47,171.95,144.47z M169.33,188.9c0.23-0.04,0.47,0,0.9,0c-0.21-0.6-0.36-1.05-0.53-1.49
			c-1.24-3.11-2.5-6.21-3.74-9.32c-1.19-2.98-1.19-3-4.4-2.8c-0.36,0.02-0.86,0.37-1.01,0.7c-0.68,1.44-1.26,2.92-1.87,4.4
			c-1.16,2.78-2.31,5.57-3.48,8.39c2.91,0.37,2.89,0.36,4.03-1.98c0.18-0.35,0.72-0.72,1.11-0.74c1.55-0.09,3.12-0.08,4.67-0.01
			c0.36,0.02,0.94,0.39,1,0.69C166.39,188.64,167.52,189.25,169.33,188.9z M148.13,188.82c0-4.52,0-8.97,0-13.56
			c-1.53,0-3,0.04-4.47-0.01c-0.64-0.02-0.9,0.24-1.09,0.81c-0.64,1.88-1.33,3.75-2.01,5.62c-0.39,1.07-0.8,2.13-1.3,3.47
			c-1.17-3.49-2.22-6.66-3.28-9.81c-1.84,0-3.62,0-5.43,0c0,4.53,0,8.98,0,13.44c1.03,0,1.99,0,3.05,0c0-3.75,0-7.4,0-11.04
			c0.29,0.2,0.4,0.44,0.48,0.69c1.11,3.11,2.23,6.22,3.32,9.35c0.23,0.67,0.41,1.27,1.34,1.13c0.87-0.13,1.84,0.33,2.29-1.03
			c1.01-3.03,2.19-5.99,3.31-8.97c0.13-0.35,0.29-0.68,0.44-1.02c0.1,0.02,0.2,0.04,0.31,0.05c0,3.63,0,7.26,0,10.88
			C146.2,188.82,147.15,188.82,148.13,188.82z M122.52,188.83c0-4.54,0-9.01,0-13.51c-1.12,0-2.14,0-3.22,0c0,4.5,0,8.95,0,13.51
			C120.43,188.83,121.45,188.83,122.52,188.83z M112.41,177.47c0-0.8,0-1.43,0-2.14c-4.27,0-8.41,0-12.6,0c0,0.72,0,1.37,0,2.16
			c1.55,0,3,0,4.61,0c0,3.88,0,7.61,0,11.32c1.17,0,2.19,0,3.33,0c0-0.55,0-1.02,0-1.5c0-2.91,0.02-5.83-0.02-8.75
			c-0.01-0.83,0.26-1.13,1.1-1.1C110.01,177.51,111.19,177.47,112.41,177.47z M95.76,188.81c0.25-2.2,0.25-2.2-1.83-2.2
			c-1.62,0-3.23,0-4.95,0c0-2.03,0-3.86,0-5.69c0-1.86,0-3.71,0-5.61c-1.16,0-2.15,0-3.25,0c0,4.55,0,9,0,13.5
			C89.13,188.81,92.45,188.81,95.76,188.81z M77.29,183.22c0-1.32,0-2.64,0-3.96c0-1.3,0-2.6,0-3.95c-1.17,0-2.16,0-3.34,0
			c0,0.58,0,1.05,0,1.52c-0.02,2.4,0.01,4.79-0.07,7.18c-0.06,2-1.13,2.99-3.09,3.03c-2.63,0.06-3.63-0.88-3.71-3.53
			c-0.03-1.23,0-2.47,0-3.71c-0.01-1.47,0-2.93,0-4.45c-1.18,0-2.23,0-3.33,0c0,3.08-0.06,6.08,0.02,9.07c0.05,1.71,0.99,3,2.52,3.8
			c1.96,1.03,4.05,1.15,6.17,0.76C75.82,188.36,77.28,186.58,77.29,183.22z"/>
	</g>
	<g>
	</g>
</g>
<path class="st1" d="M116.49,41.07c3.69,0,8.17,0.02,12.65,0c13.62-0.06,25.53,4.47,35.83,13.33c6.67,5.74,12.17,12.5,17.18,19.69
	c1.43,2.06,2.8,4.16,4.2,6.25c0.13,0.2,0.25,0.4,0.47,0.77c0.6-0.94,1.06-1.61,1.47-2.31c4.55-7.85,9.64-15.33,15.89-21.93
	c6.71-7.08,14.55-12.41,24.25-14.52c5.43-1.18,10.92-1.33,16.42-0.5c0.19,0.03,0.38,0.11,0.23,0.06c-3.26,1.25-6.89,2.33-10.2,4.01
	c-2.94,1.49-5.67,3.5-8.27,5.56c-6.69,5.32-12,11.91-16.52,19.09c-4.87,7.75-9.38,15.73-14.07,23.6c-0.33,0.55-0.35,0.96,0.02,1.5
	c4.53,6.75,8.82,13.67,13.6,20.23c6.57,9.03,14.3,16.93,24.29,22.3c4.65,2.5,9.55,4.28,14.77,5.32c-1.13,0.15-2.26,0.35-3.39,0.45
	c-1.19,0.1-2.39,0.11-3.59,0.13c-1.2,0.02-2.4,0.03-3.6,0c-10.49-0.25-20.05-3.41-28.66-9.37c-6.15-4.26-11.35-9.53-16.03-15.33
	c-7.03-8.71-12.87-18.23-18.75-27.73c-4.86-7.85-9.76-15.66-15.36-23.02c-4.21-5.53-8.8-10.74-14.19-15.16
	c-5.78-4.74-12.18-8.45-19.41-10.49C122.43,42.08,119.03,41.59,116.49,41.07z"/>
<path class="st1" d="M171.96,144.47c-5.36,0-10.77,0.2-16.15-0.05c-7.46-0.34-14.52-2.37-21.13-5.9
	c-7.76-4.15-14.12-9.93-19.78-16.58c-7.58-8.91-13.68-18.82-19.83-28.72c-5.69-9.16-11.34-18.34-18.13-26.75
	c-5.93-7.35-12.6-13.87-20.91-18.54c-5.65-3.17-11.67-5.24-18.11-6.07c-0.63-0.08-1.25-0.2-1.92-0.31c5.57,0,11.13-0.24,16.65,0.05
	c10.53,0.57,20.05,4.11,28.53,10.45c8.19,6.13,14.76,13.76,20.39,22.18c5.98,8.93,11.64,18.08,17.44,27.14
	c4.91,7.65,9.96,15.21,15.99,22.04c6.48,7.34,13.91,13.48,23.01,17.35c4.42,1.88,9.05,3,13.81,3.64
	C171.88,144.42,171.93,144.46,171.96,144.47z"/>
<path class="st1" d="M347.24,144.12c-6.41-0.25-13.56,0.47-20.66-0.74c-8.01-1.37-15.21-4.58-21.62-9.52
	c-2.05-1.58-3.93-3.38-5.88-5.07c-0.27-0.23-0.53-0.47-0.88-0.78c-13.42,12.91-29.34,18.06-47.24,15.59
	c3.11-1.02,6.71-2.01,10.16-3.38c6.52-2.59,12.26-6.5,17.27-11.37c3.59-3.49,6.83-7.34,10.24-11.02c0.49-0.53,0.5-0.95,0.07-1.56
	c-5.11-7.32-11-13.86-18.51-18.82c-6.3-4.16-13.11-6.97-20.65-7.89c-0.19-0.02-0.37-0.1-0.54-0.24c8.13,0.23,16.3-0.76,24.35,1.32
	c6.46,1.67,12.35,4.42,17.73,8.34c4.85,3.54,8.76,7.99,12.5,12.62c4.11,5.09,8.09,10.29,12.45,15.16
	c5.71,6.38,12.55,11.36,20.63,14.34C340.29,142.44,344.12,143.25,347.24,144.12z"/>
<path class="st1" d="M293.62,62.76c-5.37,0-10.6,0.04-15.82-0.05c-0.58-0.01-1.27-0.6-1.69-1.11c-2.96-3.62-6.17-6.99-9.78-9.98
	c-5.32-4.41-11.25-7.63-17.99-9.27c-0.31-0.08-0.61-0.17-0.94-0.26c5.64-1.44,16.7-1.18,26.07,3.44
	C281.66,49.56,288.05,55.66,293.62,62.76z"/>
<path class="st2" d="M148.13,175.26c0,4.59,0,9.04,0,13.56c-0.98,0-1.92,0-3.04,0c0-3.62,0-7.25,0-10.88
	c-0.1-0.02-0.2-0.04-0.3-0.06c-0.15,0.34-0.31,0.67-0.44,1.02c-1.12,2.98-2.3,5.95-3.31,8.97c-0.45,1.37-1.43,0.9-2.29,1.03
	c-0.93,0.14-1.11-0.46-1.34-1.13c-1.09-3.12-2.2-6.23-3.31-9.35c-0.09-0.25-0.19-0.49-0.48-0.69c0,3.65,0,7.29,0,11.05
	c-1.06,0-2.02,0-3.06,0c0-4.46,0-8.92,0-13.45c1.82,0,3.59,0,5.44,0c1.05,3.15,2.11,6.32,3.27,9.82c0.51-1.35,0.91-2.41,1.3-3.47
	c0.68-1.87,1.37-3.74,2.02-5.63c0.19-0.57,0.45-0.83,1.09-0.81C145.13,175.3,146.6,175.26,148.13,175.26z"/>
<g id="XMLID_2_">
	<g>
		<path class="st2" d="M77.29,179.26c0,1.32,0,2.64,0,3.96c-0.01,3.36-1.47,5.14-4.83,5.76c-2.12,0.39-4.21,0.27-6.17-0.76
			c-1.53-0.8-2.47-2.09-2.52-3.8c-0.08-2.99-0.02-5.99-0.02-9.07c1.1,0,2.15,0,3.33,0c0,1.52-0.01,2.98,0,4.45
			c0,1.24-0.03,2.48,0,3.71c0.08,2.65,1.08,3.59,3.71,3.53c1.96-0.04,3.03-1.03,3.09-3.03c0.08-2.39,0.05-4.78,0.07-7.18
			c0-0.47,0-0.94,0-1.52c1.18,0,2.17,0,3.34,0C77.29,176.66,77.29,177.96,77.29,179.26z"/>
	</g>
	<g>
	</g>
</g>
<path class="st2" d="M170.23,188.89c-0.43,0-0.67-0.04-0.9,0.01c-1.81,0.35-2.94-0.26-3.32-2.16c-0.06-0.29-0.64-0.67-0.99-0.69
	c-1.55-0.07-3.12-0.08-4.67,0.01c-0.39,0.02-0.93,0.39-1.11,0.74c-1.15,2.34-1.12,2.35-4.03,1.98c1.17-2.82,2.32-5.61,3.48-8.39
	c0.61-1.47,1.19-2.96,1.87-4.4c0.15-0.33,0.65-0.67,1.01-0.7c3.21-0.2,3.21-0.18,4.4,2.8c1.24,3.11,2.5,6.21,3.74,9.32
	C169.88,187.84,170.02,188.29,170.23,188.89z M162.73,177.84c-0.83,2.12-1.53,3.93-2.26,5.79c1.62,0,2.94,0,4.41,0
	C164.17,181.72,163.51,179.94,162.73,177.84z"/>
<path class="st2" d="M280.38,189.11c-0.47,0-0.78,0-1.25,0c0-4.01,0-7.97,0-11.93c-0.09-0.02-0.17-0.04-0.26-0.06
	c-0.15,0.25-0.32,0.48-0.44,0.74c-1.65,3.45-3.27,6.92-4.96,10.35c-0.2,0.4-0.7,0.77-1.14,0.92c-0.78,0.27-0.98-0.42-1.24-0.96
	c-1.61-3.38-3.23-6.76-4.85-10.14c-0.15-0.3-0.34-0.59-0.7-0.82c0,3.93,0,7.85,0,11.87c-0.51,0-0.91,0-1.38,0c0-4.46,0-8.88,0-13.29
	c1.88-0.5,2.15-0.39,2.98,1.28c1.48,3,2.96,6.01,4.45,9.01c0.19,0.38,0.41,0.75,0.73,1.34c0.95-1.87,1.8-3.56,2.66-5.25
	c0.97-1.92,2.01-3.81,2.9-5.77c0.46-1.02,1.27-0.9,1.99-0.73c0.27,0.06,0.54,0.83,0.55,1.28c0.04,3.64,0.03,7.27,0.02,10.91
	C280.44,188.23,280.41,188.62,280.38,189.11z"/>
<path class="st2" d="M112.42,175.33c0,0.71,0,1.34,0,2.15c-1.22,0-2.41,0.04-3.59-0.01c-0.83-0.04-1.11,0.27-1.1,1.1
	c0.04,2.92,0.02,5.83,0.02,8.75c0,0.47,0,0.95,0,1.5c-1.13,0-2.16,0-3.33,0c0-3.72,0-7.45,0-11.32c-1.61,0-3.06,0-4.61,0
	c0-0.8,0-1.44,0-2.17C104,175.33,108.14,175.33,112.42,175.33z"/>
<path class="st2" d="M85.73,175.3c1.1,0,2.09,0,3.25,0c0,1.9,0,3.76,0,5.62c0,1.83,0,3.66,0,5.69c1.72,0,3.33,0,4.95,0
	c2.08,0,2.08,0,1.83,2.2c-3.31,0-6.63,0-10.03,0C85.73,184.31,85.73,179.86,85.73,175.3z"/>
<path class="st2" d="M248.3,189.46c-4.35-0.02-6.94-2.66-6.93-7.09c0.01-4.39,2.67-7.09,6.97-7.08c4.41,0.01,7.08,2.71,7.07,7.12
	C255.4,186.83,252.73,189.48,248.3,189.46z M253.83,182.4c0.01-3.33-1.73-5.6-4.54-5.94c-3.25-0.4-5.57,1.22-6.26,4.37
	c-0.68,3.11,0.68,6.18,3.16,7.16C250.23,189.56,253.82,186.94,253.83,182.4z"/>
<path class="st2" d="M222.42,189.11c-0.59,0-0.94,0-1.35,0c0-4.5,0-8.95,0-13.39c1.03-0.33,1.67-0.07,2.28,0.8
	c2.4,3.43,4.89,6.81,7.34,10.2c0.14,0.19,0.28,0.37,0.65,0.87c0-4.18,0-8,0-11.91c0.5-0.04,0.84-0.06,1.28-0.09
	c0,4.54,0,8.98,0,13.45c-1.11,0.39-1.83,0.03-2.5-0.93c-2.25-3.25-4.59-6.43-6.9-9.64c-0.17-0.24-0.38-0.45-0.81-0.94
	C222.42,181.56,222.42,185.29,222.42,189.11z"/>
<path class="st2" d="M191.96,183.38c-1.37,0-2.59,0-3.86,0c0-0.42,0-0.72,0-1.08c1.74,0,3.44,0,5.26,0c0,1.99,0.02,3.94-0.02,5.88
	c0,0.23-0.31,0.58-0.53,0.64c-2.29,0.64-4.64,0.94-6.97,0.42c-2.75-0.6-4.53-2.76-4.68-5.64c-0.07-1.29-0.02-2.67,0.37-3.88
	c1.34-4.13,6.33-5.79,10-3.44c0.9,0.58,1.57,1.34,1.69,2.5c-0.86,0.25-1.41,0.18-1.92-0.76c-1.14-2.08-5.06-2.2-7-0.31
	c-1.81,1.76-2.31,5.31-1.1,7.83c0.97,2.03,3.26,3.1,5.98,2.81c2.79-0.31,2.79-0.31,2.79-3.1
	C191.96,184.69,191.96,184.13,191.96,183.38z"/>
<path class="st2" d="M330.26,178.47c-0.43,0-0.81,0-1.2,0c-1.06-2.26-4.96-2.82-6.7-0.96c-0.91,0.97-0.71,2.44,0.6,3.13
	c1.11,0.59,2.37,0.89,3.56,1.34c0.93,0.35,1.92,0.61,2.75,1.13c1.85,1.14,1.95,3.74,0.28,5.11c-1.82,1.48-5.87,1.71-7.84,0.45
	c-1.03-0.66-1.63-1.58-1.73-2.87c0.82-0.24,1.38-0.29,1.66,0.72c0.14,0.5,0.64,1.06,1.12,1.29c1.75,0.85,3.56,0.86,5.26-0.16
	c1.64-0.99,1.57-2.96-0.15-3.8c-0.99-0.48-2.12-0.67-3.16-1.06c-0.96-0.36-1.97-0.69-2.83-1.23c-2.12-1.33-2.08-3.91,0-5.32
	c1.83-1.24,5.24-1.28,7.08-0.05C329.73,176.7,330.33,177.36,330.26,178.47z"/>
<path class="st2" d="M211.71,181.51c0,0.47,0,0.77,0,1.18c-2.11,0-4.18,0.05-6.25-0.02c-0.97-0.03-1.39,0.22-1.31,1.25
	c0.08,1.07,0.05,2.15,0,3.23c-0.04,0.8,0.3,1.03,1.05,1.02c2.07-0.03,4.15-0.03,6.23,0.02c0.33,0.01,0.65,0.34,0.98,0.52
	c-0.31,0.15-0.61,0.43-0.92,0.43c-2.86,0.03-5.72,0.02-8.64,0.02c-0.04-0.42-0.09-0.73-0.09-1.04c-0.01-3.79,0.02-7.58-0.02-11.37
	c-0.01-0.86,0.2-1.2,1.13-1.18c2.39,0.06,4.79,0.03,7.18,0.01c0.7,0,1.25,0.06,0.87,1.11c-2.48,0-5.02,0-7.66,0
	c0,1.65,0,3.18,0,4.83C206.72,181.51,209.13,181.51,211.71,181.51z"/>
<path class="st2" d="M119.3,188.83c0-4.56,0-9.01,0-13.52c1.08,0,2.1,0,3.22,0c0,4.5,0,8.98,0,13.52
	C121.46,188.83,120.44,188.83,119.3,188.83z"/>
<path class="st2" d="M312.63,178.58c-1.28,0.31-1.74,0.13-2.2-0.67c-1.27-2.22-5.67-1.97-7.42,0.34c-1.59,2.1-1.6,6.14-0.03,8.25
	c1.93,2.59,5.98,2.47,7.88-0.17c0.24-0.34,0.88-0.39,1.42-0.42c-0.31,1.79-1.43,2.79-2.99,3.21c-2.6,0.71-5.16,0.59-7.12-1.5
	c-2.11-2.25-2.3-5.04-1.46-7.86c1.24-4.14,6.49-5.94,10.06-3.47C311.49,176.79,311.92,177.68,312.63,178.58z"/>
<path class="st2" d="M290.16,175.58c0.46,0,0.81,0,1.24,0c0,4.49,0,8.94,0,13.49c-0.38,0.03-0.76,0.06-1.24,0.1
	C290.16,184.61,290.16,180.14,290.16,175.58z"/>
<path class="st0" d="M162.73,177.84c0.78,2.1,1.44,3.87,2.15,5.79c-1.46,0-2.79,0-4.41,0C161.2,181.77,161.91,179.96,162.73,177.84z
	"/>
<path class="st0" d="M253.83,182.4c-0.01,4.54-3.6,7.16-7.63,5.58c-2.49-0.97-3.85-4.04-3.16-7.16c0.69-3.14,3.01-4.76,6.26-4.37
	C252.1,176.8,253.84,179.07,253.83,182.4z"/>
</svg>
