<svg width="21" height="32" viewBox="0 0 21 32" fill="none" xmlns="http://www.w3.org/2000/svg">
<path d="M11.284 0.990374L11.6761 0.680022V0.680022L11.284 0.990374ZM19.608 12.3104C19.7794 12.5269 20.0938 12.5634 20.3104 12.392C20.5269 12.2206 20.5634 11.9062 20.392 11.6896L19.608 12.3104ZM0.607977 11.6896C0.436575 11.9062 0.47314 12.2206 0.689649 12.392C0.906157 12.5634 1.22062 12.5269 1.39202 12.3104L0.607977 11.6896ZM9.71596 0.990373L10.108 1.30072V1.30072L9.71596 0.990373ZM10.892 1.30073L19.608 12.3104L20.392 11.6896L11.6761 0.680022L10.892 1.30073ZM1.39202 12.3104L10.108 1.30072L9.32393 0.680022L0.607977 11.6896L1.39202 12.3104ZM11.6761 0.680022C11.0755 -0.0785712 9.92449 -0.0785732 9.32393 0.680022L10.108 1.30072C10.3082 1.04786 10.6918 1.04786 10.892 1.30073L11.6761 0.680022Z" fill="#3F3F3F"/>
<path d="M9.71595 31.0096L9.32393 31.32L9.32393 31.32L9.71595 31.0096ZM1.39202 19.6896C1.22062 19.4731 0.906158 19.4366 0.689649 19.608C0.473142 19.7794 0.436576 20.0938 0.607978 20.3103L1.39202 19.6896ZM20.392 20.3104C20.5634 20.0938 20.5269 19.7794 20.3104 19.608C20.0938 19.4366 19.7794 19.4731 19.608 19.6896L20.392 20.3104ZM11.284 31.0096L10.892 30.6993L10.892 30.6993L11.284 31.0096ZM10.108 30.6993L1.39202 19.6896L0.607978 20.3103L9.32393 31.32L10.108 30.6993ZM19.608 19.6896L10.892 30.6993L11.6761 31.32L20.392 20.3104L19.608 19.6896ZM9.32393 31.32C9.92448 32.0786 11.0755 32.0786 11.6761 31.32L10.892 30.6993C10.6918 30.9521 10.3082 30.9521 10.108 30.6993L9.32393 31.32Z" fill="#3F3F3F"/>
</svg>
